<?xml version="1.0" encoding="UTF-8"?>
<svg viewBox="0 0 106.67 106.67" xmlns="http://www.w3.org/2000/svg">
 <g fill-rule="evenodd" stroke-width="1.25">
  <path d="m27.215 9.6962c70.511-13.195 81.232 89.479 4.9482 82.882 16.494-5.7728 43.709-54.43-4.9482-82.882z" stroke="#000"/>
  <g fill-opacity=".05">
   <path d="m27.652 9.5112c50.719 5.7728 56.904 69.274 4.9482 82.882 16.494-5.7728 43.709-54.43-4.9482-82.882z"/>
   <path d="m28.112 9.0777c47.008 9.484 51.956 67.212 4.9482 82.882 16.494-5.7728 43.709-54.43-4.9482-82.882z"/>
   <path d="m27.269 9.9024c42.884 13.195 49.894 61.44 4.9482 82.882 16.494-5.7728 43.709-54.43-4.9482-82.882z"/>
  </g>
  <path d="m27.24 10.336c69.274-12.37 79.17 87.417 4.9482 82.057 52.368 3.7111 77.109-79.995-4.9482-82.057z" fill-opacity=".5"/>
 </g>
</svg>
